<mxfile host="app.diagrams.net" agent="Mozilla/5.0 (Windows NT 10.0; Win64; x64) AppleWebKit/537.36 (KHTML, like Gecko) Chrome/129.0.0.0 Safari/537.36" version="24.7.17">
  <diagram name="Page-1" id="0783ab3e-0a74-02c8-0abd-f7b4e66b4bec">
    <mxGraphModel dx="4370" dy="2032" grid="1" gridSize="10" guides="1" tooltips="1" connect="1" arrows="1" fold="1" page="1" pageScale="1" pageWidth="850" pageHeight="1100" background="none" math="0" shadow="0">
      <root>
        <mxCell id="0" />
        <mxCell id="1" parent="0" />
        <mxCell id="1c1d494c118603dd-1" value="Registrarse" style="swimlane;html=1;childLayout=stackLayout;startSize=20;rounded=0;shadow=0;comic=0;labelBackgroundColor=none;strokeWidth=1;fontFamily=Verdana;fontSize=12;align=center;" parent="1" vertex="1">
          <mxGeometry x="1090" y="60" width="1190" height="900" as="geometry" />
        </mxCell>
        <mxCell id="1c1d494c118603dd-3" value="Base de datos" style="swimlane;html=1;startSize=20;" parent="1c1d494c118603dd-1" vertex="1">
          <mxGeometry y="20" width="220" height="880" as="geometry" />
        </mxCell>
        <mxCell id="29qD2QvMl3Nega16LxBb-253" value="Mostrar datos de los usuarios" style="rounded=1;whiteSpace=wrap;html=1;shadow=0;comic=0;labelBackgroundColor=none;strokeWidth=1;fontFamily=Verdana;fontSize=12;align=center;arcSize=50;" parent="1c1d494c118603dd-3" vertex="1">
          <mxGeometry x="40" y="400" width="140" height="45" as="geometry" />
        </mxCell>
        <mxCell id="29qD2QvMl3Nega16LxBb-246" value="Guardar datos del usuario" style="rounded=1;whiteSpace=wrap;html=1;shadow=0;comic=0;labelBackgroundColor=none;strokeWidth=1;fontFamily=Verdana;fontSize=12;align=center;arcSize=50;" parent="1c1d494c118603dd-3" vertex="1">
          <mxGeometry x="80" y="760" width="122.5" height="40" as="geometry" />
        </mxCell>
        <mxCell id="1c1d494c118603dd-4" value="API" style="swimlane;html=1;startSize=20;" parent="1c1d494c118603dd-1" vertex="1">
          <mxGeometry x="220" y="20" width="250" height="880" as="geometry" />
        </mxCell>
        <mxCell id="29qD2QvMl3Nega16LxBb-251" value="Verificar si el usuario ya esta registrado" style="rounded=1;whiteSpace=wrap;html=1;shadow=0;comic=0;labelBackgroundColor=none;strokeWidth=1;fontFamily=Verdana;fontSize=12;align=center;arcSize=50;" parent="1c1d494c118603dd-4" vertex="1">
          <mxGeometry x="60" y="250" width="140" height="45" as="geometry" />
        </mxCell>
        <mxCell id="7HKzWQ70H74Iaa0e3sF2-1" value="Web" style="swimlane;html=1;startSize=20;" parent="1c1d494c118603dd-1" vertex="1">
          <mxGeometry x="470" y="20" width="300" height="880" as="geometry" />
        </mxCell>
        <mxCell id="29qD2QvMl3Nega16LxBb-219" value="Notificar que el registro es invalido" style="rounded=1;whiteSpace=wrap;html=1;shadow=0;comic=0;labelBackgroundColor=none;strokeWidth=1;fontFamily=Verdana;fontSize=12;align=center;arcSize=50;" parent="7HKzWQ70H74Iaa0e3sF2-1" vertex="1">
          <mxGeometry x="70" y="340" width="127.5" height="40" as="geometry" />
        </mxCell>
        <mxCell id="29qD2QvMl3Nega16LxBb-279" style="edgeStyle=orthogonalEdgeStyle;rounded=0;orthogonalLoop=1;jettySize=auto;html=1;" parent="7HKzWQ70H74Iaa0e3sF2-1" source="29qD2QvMl3Nega16LxBb-249" target="60571a20871a0731-5" edge="1">
          <mxGeometry relative="1" as="geometry">
            <Array as="points">
              <mxPoint x="69" y="830" />
            </Array>
          </mxGeometry>
        </mxCell>
        <mxCell id="29qD2QvMl3Nega16LxBb-249" value="Notificar que la cuenta ha sido registrada exitosamente" style="rounded=1;whiteSpace=wrap;html=1;shadow=0;comic=0;labelBackgroundColor=none;strokeWidth=1;fontFamily=Verdana;fontSize=12;align=center;arcSize=50;" parent="7HKzWQ70H74Iaa0e3sF2-1" vertex="1">
          <mxGeometry x="20" y="725" width="122.5" height="65" as="geometry" />
        </mxCell>
        <mxCell id="60571a20871a0731-5" value="" style="shape=mxgraph.bpmn.shape;html=1;verticalLabelPosition=bottom;labelBackgroundColor=#ffffff;verticalAlign=top;perimeter=ellipsePerimeter;outline=end;symbol=terminate;rounded=0;shadow=0;comic=0;strokeWidth=1;fontFamily=Verdana;fontSize=12;align=center;" parent="7HKzWQ70H74Iaa0e3sF2-1" vertex="1">
          <mxGeometry x="140" y="810" width="40" height="40" as="geometry" />
        </mxCell>
        <mxCell id="29qD2QvMl3Nega16LxBb-274" style="edgeStyle=orthogonalEdgeStyle;rounded=0;orthogonalLoop=1;jettySize=auto;html=1;entryX=1;entryY=0.5;entryDx=0;entryDy=0;" parent="7HKzWQ70H74Iaa0e3sF2-1" source="29qD2QvMl3Nega16LxBb-254" target="60571a20871a0731-5" edge="1">
          <mxGeometry relative="1" as="geometry" />
        </mxCell>
        <mxCell id="29qD2QvMl3Nega16LxBb-254" value="Notificar que la cuenta ya existe" style="rounded=1;whiteSpace=wrap;html=1;shadow=0;comic=0;labelBackgroundColor=none;strokeWidth=1;fontFamily=Verdana;fontSize=12;align=center;arcSize=50;" parent="7HKzWQ70H74Iaa0e3sF2-1" vertex="1">
          <mxGeometry x="170" y="725" width="122.5" height="65" as="geometry" />
        </mxCell>
        <mxCell id="29qD2QvMl3Nega16LxBb-245" value="Enviar datos del formulario" style="rounded=1;whiteSpace=wrap;html=1;shadow=0;comic=0;labelBackgroundColor=none;strokeWidth=1;fontFamily=Verdana;fontSize=12;align=center;arcSize=50;" parent="7HKzWQ70H74Iaa0e3sF2-1" vertex="1">
          <mxGeometry x="88.75" y="540" width="122.5" height="40" as="geometry" />
        </mxCell>
        <mxCell id="7HKzWQ70H74Iaa0e3sF2-30" value="Usuario" style="swimlane;html=1;startSize=20;" parent="1c1d494c118603dd-1" vertex="1">
          <mxGeometry x="770" y="20" width="420" height="880" as="geometry">
            <mxRectangle x="750" y="20" width="40" height="630" as="alternateBounds" />
          </mxGeometry>
        </mxCell>
        <mxCell id="7HKzWQ70H74Iaa0e3sF2-31" style="edgeStyle=orthogonalEdgeStyle;rounded=0;html=1;labelBackgroundColor=none;startArrow=none;startFill=0;startSize=5;endArrow=classicThin;endFill=1;endSize=5;jettySize=auto;orthogonalLoop=1;strokeWidth=1;fontFamily=Verdana;fontSize=12" parent="7HKzWQ70H74Iaa0e3sF2-30" source="7HKzWQ70H74Iaa0e3sF2-32" target="7HKzWQ70H74Iaa0e3sF2-33" edge="1">
          <mxGeometry relative="1" as="geometry" />
        </mxCell>
        <mxCell id="7HKzWQ70H74Iaa0e3sF2-32" value="" style="ellipse;whiteSpace=wrap;html=1;rounded=0;shadow=0;comic=0;labelBackgroundColor=none;strokeWidth=1;fillColor=#000000;fontFamily=Verdana;fontSize=12;align=center;" parent="7HKzWQ70H74Iaa0e3sF2-30" vertex="1">
          <mxGeometry x="189.5" y="30" width="40" height="40" as="geometry" />
        </mxCell>
        <mxCell id="29qD2QvMl3Nega16LxBb-248" style="edgeStyle=orthogonalEdgeStyle;rounded=0;orthogonalLoop=1;jettySize=auto;html=1;" parent="7HKzWQ70H74Iaa0e3sF2-30" source="7HKzWQ70H74Iaa0e3sF2-33" target="29qD2QvMl3Nega16LxBb-247" edge="1">
          <mxGeometry relative="1" as="geometry" />
        </mxCell>
        <mxCell id="7HKzWQ70H74Iaa0e3sF2-33" value="Selecciona la opcion de registrarse" style="rounded=1;whiteSpace=wrap;html=1;shadow=0;comic=0;labelBackgroundColor=none;strokeWidth=1;fontFamily=Verdana;fontSize=12;align=center;arcSize=50;" parent="7HKzWQ70H74Iaa0e3sF2-30" vertex="1">
          <mxGeometry x="141" y="100" width="138" height="40" as="geometry" />
        </mxCell>
        <mxCell id="29qD2QvMl3Nega16LxBb-260" style="edgeStyle=orthogonalEdgeStyle;rounded=0;orthogonalLoop=1;jettySize=auto;html=1;entryX=0;entryY=0.5;entryDx=0;entryDy=0;" parent="7HKzWQ70H74Iaa0e3sF2-30" source="29qD2QvMl3Nega16LxBb-217" target="29qD2QvMl3Nega16LxBb-250" edge="1">
          <mxGeometry relative="1" as="geometry">
            <mxPoint x="151.25" y="460" as="targetPoint" />
          </mxGeometry>
        </mxCell>
        <mxCell id="29qD2QvMl3Nega16LxBb-217" value="Ingresa gmail" style="rounded=1;whiteSpace=wrap;html=1;shadow=0;comic=0;labelBackgroundColor=none;strokeWidth=1;fontFamily=Verdana;fontSize=12;align=center;arcSize=50;" parent="7HKzWQ70H74Iaa0e3sF2-30" vertex="1">
          <mxGeometry x="61" y="320" width="80" height="30" as="geometry" />
        </mxCell>
        <mxCell id="29qD2QvMl3Nega16LxBb-233" style="edgeStyle=orthogonalEdgeStyle;rounded=0;orthogonalLoop=1;jettySize=auto;html=1;exitX=0.573;exitY=0.98;exitDx=0;exitDy=0;exitPerimeter=0;" parent="7HKzWQ70H74Iaa0e3sF2-30" source="29qD2QvMl3Nega16LxBb-247" target="29qD2QvMl3Nega16LxBb-228" edge="1">
          <mxGeometry relative="1" as="geometry">
            <Array as="points">
              <mxPoint x="223" y="219" />
            </Array>
            <mxPoint x="223.0526315789475" y="270" as="sourcePoint" />
          </mxGeometry>
        </mxCell>
        <mxCell id="29qD2QvMl3Nega16LxBb-235" style="edgeStyle=orthogonalEdgeStyle;rounded=0;orthogonalLoop=1;jettySize=auto;html=1;exitX=0.75;exitY=1;exitDx=0;exitDy=0;" parent="7HKzWQ70H74Iaa0e3sF2-30" source="29qD2QvMl3Nega16LxBb-247" target="29qD2QvMl3Nega16LxBb-229" edge="1">
          <mxGeometry relative="1" as="geometry">
            <mxPoint x="373.00000000000045" y="390" as="targetPoint" />
            <Array as="points">
              <mxPoint x="280" y="220" />
              <mxPoint x="280" y="280" />
              <mxPoint x="330" y="280" />
            </Array>
            <mxPoint x="300" y="270" as="sourcePoint" />
          </mxGeometry>
        </mxCell>
        <mxCell id="29qD2QvMl3Nega16LxBb-238" style="edgeStyle=orthogonalEdgeStyle;rounded=0;orthogonalLoop=1;jettySize=auto;html=1;exitX=0.25;exitY=1;exitDx=0;exitDy=0;" parent="7HKzWQ70H74Iaa0e3sF2-30" source="29qD2QvMl3Nega16LxBb-247" target="29qD2QvMl3Nega16LxBb-217" edge="1">
          <mxGeometry relative="1" as="geometry">
            <mxPoint x="80" y="380" as="targetPoint" />
            <Array as="points">
              <mxPoint x="170" y="220" />
              <mxPoint x="170" y="270" />
              <mxPoint x="110" y="270" />
            </Array>
            <mxPoint x="140" y="270" as="sourcePoint" />
          </mxGeometry>
        </mxCell>
        <mxCell id="29qD2QvMl3Nega16LxBb-228" value="Ingresa nombre" style="rounded=1;whiteSpace=wrap;html=1;shadow=0;comic=0;labelBackgroundColor=none;strokeWidth=1;fontFamily=Verdana;fontSize=12;align=center;arcSize=50;" parent="7HKzWQ70H74Iaa0e3sF2-30" vertex="1">
          <mxGeometry x="175.5" y="330" width="90" height="30" as="geometry" />
        </mxCell>
        <mxCell id="29qD2QvMl3Nega16LxBb-236" style="edgeStyle=orthogonalEdgeStyle;rounded=0;orthogonalLoop=1;jettySize=auto;html=1;exitX=0.59;exitY=1.01;exitDx=0;exitDy=0;exitPerimeter=0;" parent="7HKzWQ70H74Iaa0e3sF2-30" source="29qD2QvMl3Nega16LxBb-229" target="29qD2QvMl3Nega16LxBb-232" edge="1">
          <mxGeometry relative="1" as="geometry">
            <mxPoint x="386" y="413" as="sourcePoint" />
            <Array as="points">
              <mxPoint x="350" y="365" />
            </Array>
          </mxGeometry>
        </mxCell>
        <mxCell id="29qD2QvMl3Nega16LxBb-229" value="Ingresa contaseña" style="rounded=1;whiteSpace=wrap;html=1;shadow=0;comic=0;labelBackgroundColor=none;strokeWidth=1;fontFamily=Verdana;fontSize=12;align=center;arcSize=50;" parent="7HKzWQ70H74Iaa0e3sF2-30" vertex="1">
          <mxGeometry x="290" y="335" width="110" height="30" as="geometry" />
        </mxCell>
        <mxCell id="29qD2QvMl3Nega16LxBb-232" value="Repite contraseña" style="rounded=1;whiteSpace=wrap;html=1;shadow=0;comic=0;labelBackgroundColor=none;strokeWidth=1;fontFamily=Verdana;fontSize=12;align=center;arcSize=50;" parent="7HKzWQ70H74Iaa0e3sF2-30" vertex="1">
          <mxGeometry x="300" y="390" width="100" height="35" as="geometry" />
        </mxCell>
        <mxCell id="29qD2QvMl3Nega16LxBb-247" value="Rellenar formulario de registro" style="rounded=1;whiteSpace=wrap;html=1;shadow=0;comic=0;labelBackgroundColor=none;strokeWidth=1;fontFamily=Verdana;fontSize=12;align=center;arcSize=50;" parent="7HKzWQ70H74Iaa0e3sF2-30" vertex="1">
          <mxGeometry x="135" y="180" width="149" height="40" as="geometry" />
        </mxCell>
        <mxCell id="29qD2QvMl3Nega16LxBb-262" style="edgeStyle=orthogonalEdgeStyle;rounded=0;orthogonalLoop=1;jettySize=auto;html=1;" parent="7HKzWQ70H74Iaa0e3sF2-30" source="29qD2QvMl3Nega16LxBb-250" target="29qD2QvMl3Nega16LxBb-256" edge="1">
          <mxGeometry relative="1" as="geometry" />
        </mxCell>
        <mxCell id="29qD2QvMl3Nega16LxBb-250" value="Confirmar registro" style="rounded=1;whiteSpace=wrap;html=1;shadow=0;comic=0;labelBackgroundColor=none;strokeWidth=1;fontFamily=Verdana;fontSize=12;align=center;arcSize=50;" parent="7HKzWQ70H74Iaa0e3sF2-30" vertex="1">
          <mxGeometry x="152.5" y="500" width="90" height="30" as="geometry" />
        </mxCell>
        <mxCell id="29qD2QvMl3Nega16LxBb-256" value="&lt;font style=&quot;font-size: 11px;&quot;&gt;¿Los datos son validos para el registro?&lt;/font&gt;" style="rhombus;whiteSpace=wrap;html=1;align=center;" parent="7HKzWQ70H74Iaa0e3sF2-30" vertex="1">
          <mxGeometry x="145.25" y="580" width="104.75" height="100" as="geometry" />
        </mxCell>
        <mxCell id="29qD2QvMl3Nega16LxBb-258" style="edgeStyle=orthogonalEdgeStyle;rounded=0;orthogonalLoop=1;jettySize=auto;html=1;entryX=0.639;entryY=0;entryDx=0;entryDy=0;entryPerimeter=0;" parent="7HKzWQ70H74Iaa0e3sF2-30" source="29qD2QvMl3Nega16LxBb-228" target="29qD2QvMl3Nega16LxBb-250" edge="1">
          <mxGeometry relative="1" as="geometry">
            <mxPoint x="220.52631578947376" y="460" as="targetPoint" />
            <Array as="points">
              <mxPoint x="210" y="390" />
              <mxPoint x="210" y="390" />
            </Array>
          </mxGeometry>
        </mxCell>
        <mxCell id="29qD2QvMl3Nega16LxBb-259" style="edgeStyle=orthogonalEdgeStyle;rounded=0;orthogonalLoop=1;jettySize=auto;html=1;entryX=1;entryY=0.5;entryDx=0;entryDy=0;" parent="7HKzWQ70H74Iaa0e3sF2-30" source="29qD2QvMl3Nega16LxBb-232" target="29qD2QvMl3Nega16LxBb-250" edge="1">
          <mxGeometry relative="1" as="geometry">
            <Array as="points">
              <mxPoint x="350" y="460" />
              <mxPoint x="270" y="460" />
              <mxPoint x="270" y="515" />
            </Array>
            <mxPoint x="270" y="460" as="targetPoint" />
          </mxGeometry>
        </mxCell>
        <mxCell id="29qD2QvMl3Nega16LxBb-263" style="edgeStyle=orthogonalEdgeStyle;rounded=0;orthogonalLoop=1;jettySize=auto;html=1;entryX=1;entryY=0.5;entryDx=0;entryDy=0;" parent="1c1d494c118603dd-1" source="29qD2QvMl3Nega16LxBb-256" target="29qD2QvMl3Nega16LxBb-219" edge="1">
          <mxGeometry relative="1" as="geometry">
            <Array as="points">
              <mxPoint x="830" y="610" />
              <mxPoint x="830" y="380" />
            </Array>
          </mxGeometry>
        </mxCell>
        <mxCell id="1MVDxf54JgNe-HN3kASA-36" value="&lt;font style=&quot;font-size: 16px;&quot;&gt;No&lt;/font&gt;" style="edgeLabel;html=1;align=center;verticalAlign=middle;resizable=0;points=[];" parent="29qD2QvMl3Nega16LxBb-263" vertex="1" connectable="0">
          <mxGeometry x="-0.4442" y="2" relative="1" as="geometry">
            <mxPoint as="offset" />
          </mxGeometry>
        </mxCell>
        <mxCell id="29qD2QvMl3Nega16LxBb-264" style="edgeStyle=orthogonalEdgeStyle;rounded=0;orthogonalLoop=1;jettySize=auto;html=1;" parent="1c1d494c118603dd-1" source="29qD2QvMl3Nega16LxBb-219" target="29qD2QvMl3Nega16LxBb-247" edge="1">
          <mxGeometry relative="1" as="geometry">
            <Array as="points">
              <mxPoint x="660" y="220" />
            </Array>
          </mxGeometry>
        </mxCell>
        <mxCell id="29qD2QvMl3Nega16LxBb-266" style="edgeStyle=orthogonalEdgeStyle;rounded=0;orthogonalLoop=1;jettySize=auto;html=1;" parent="1c1d494c118603dd-1" source="29qD2QvMl3Nega16LxBb-256" target="29qD2QvMl3Nega16LxBb-245" edge="1">
          <mxGeometry relative="1" as="geometry" />
        </mxCell>
        <mxCell id="29qD2QvMl3Nega16LxBb-267" value="&lt;font style=&quot;font-size: 16px;&quot;&gt;Si&lt;/font&gt;" style="edgeLabel;html=1;align=center;verticalAlign=middle;resizable=0;points=[];" parent="29qD2QvMl3Nega16LxBb-266" vertex="1" connectable="0">
          <mxGeometry x="-0.3396" y="5" relative="1" as="geometry">
            <mxPoint x="-5" y="-5" as="offset" />
          </mxGeometry>
        </mxCell>
        <mxCell id="29qD2QvMl3Nega16LxBb-268" style="edgeStyle=orthogonalEdgeStyle;rounded=0;orthogonalLoop=1;jettySize=auto;html=1;" parent="1c1d494c118603dd-1" source="29qD2QvMl3Nega16LxBb-245" target="29qD2QvMl3Nega16LxBb-251" edge="1">
          <mxGeometry relative="1" as="geometry">
            <Array as="points">
              <mxPoint x="500" y="570" />
              <mxPoint x="500" y="292" />
            </Array>
          </mxGeometry>
        </mxCell>
        <mxCell id="29qD2QvMl3Nega16LxBb-269" style="edgeStyle=orthogonalEdgeStyle;rounded=0;orthogonalLoop=1;jettySize=auto;html=1;" parent="1c1d494c118603dd-1" source="29qD2QvMl3Nega16LxBb-251" target="29qD2QvMl3Nega16LxBb-253" edge="1">
          <mxGeometry relative="1" as="geometry" />
        </mxCell>
        <mxCell id="29qD2QvMl3Nega16LxBb-277" style="edgeStyle=orthogonalEdgeStyle;rounded=0;orthogonalLoop=1;jettySize=auto;html=1;entryX=0.02;entryY=0.687;entryDx=0;entryDy=0;entryPerimeter=0;" parent="1c1d494c118603dd-1" source="29qD2QvMl3Nega16LxBb-246" target="29qD2QvMl3Nega16LxBb-249" edge="1">
          <mxGeometry relative="1" as="geometry">
            <Array as="points">
              <mxPoint x="330" y="790" />
              <mxPoint x="330" y="790" />
            </Array>
          </mxGeometry>
        </mxCell>
        <mxCell id="qgMPv3SP54ZubkrI89RQ-8" value="Visualizar Dashboard" style="swimlane;html=1;childLayout=stackLayout;startSize=20;rounded=0;shadow=0;comic=0;labelBackgroundColor=none;strokeWidth=1;fontFamily=Verdana;fontSize=12;align=center;" parent="1" vertex="1">
          <mxGeometry x="-370" y="160" width="1280" height="470" as="geometry" />
        </mxCell>
        <mxCell id="qgMPv3SP54ZubkrI89RQ-9" value="Base de datos" style="swimlane;html=1;startSize=20;" parent="qgMPv3SP54ZubkrI89RQ-8" vertex="1">
          <mxGeometry y="20" width="210" height="450" as="geometry" />
        </mxCell>
        <mxCell id="OKTvD-fGKfTnypp5BjO2-22" value="Guardar datos" style="rounded=1;whiteSpace=wrap;html=1;shadow=0;comic=0;labelBackgroundColor=none;strokeWidth=1;fontFamily=Verdana;fontSize=12;align=center;arcSize=50;" parent="qgMPv3SP54ZubkrI89RQ-9" vertex="1">
          <mxGeometry x="50" y="234" width="100" height="30" as="geometry" />
        </mxCell>
        <mxCell id="OKTvD-fGKfTnypp5BjO2-29" value="Envia datos generales" style="rounded=1;whiteSpace=wrap;html=1;shadow=0;comic=0;labelBackgroundColor=none;strokeWidth=1;fontFamily=Verdana;fontSize=12;align=center;arcSize=50;" parent="qgMPv3SP54ZubkrI89RQ-9" vertex="1">
          <mxGeometry x="50" y="320" width="100" height="30" as="geometry" />
        </mxCell>
        <mxCell id="qgMPv3SP54ZubkrI89RQ-19" value="Dispositivo" style="swimlane;html=1;startSize=20;" parent="qgMPv3SP54ZubkrI89RQ-8" vertex="1">
          <mxGeometry x="210" y="20" width="300" height="450" as="geometry" />
        </mxCell>
        <mxCell id="OKTvD-fGKfTnypp5BjO2-18" style="edgeStyle=orthogonalEdgeStyle;rounded=0;orthogonalLoop=1;jettySize=auto;html=1;" parent="qgMPv3SP54ZubkrI89RQ-19" source="OKTvD-fGKfTnypp5BjO2-6" target="OKTvD-fGKfTnypp5BjO2-17" edge="1">
          <mxGeometry relative="1" as="geometry">
            <Array as="points">
              <mxPoint x="79" y="130" />
              <mxPoint x="110" y="130" />
            </Array>
          </mxGeometry>
        </mxCell>
        <mxCell id="OKTvD-fGKfTnypp5BjO2-6" value="El/los dispositivo/s encendido/s por X tiempo" style="shape=note;whiteSpace=wrap;html=1;rounded=0;shadow=0;comic=0;labelBackgroundColor=none;strokeWidth=1;fontFamily=Verdana;fontSize=12;align=center;size=11;" parent="qgMPv3SP54ZubkrI89RQ-19" vertex="1">
          <mxGeometry x="10" y="50" width="137.5" height="70" as="geometry" />
        </mxCell>
        <mxCell id="OKTvD-fGKfTnypp5BjO2-17" value="Enviar datos recolectados" style="rounded=1;whiteSpace=wrap;html=1;shadow=0;comic=0;labelBackgroundColor=none;strokeWidth=1;fontFamily=Verdana;fontSize=12;align=center;arcSize=50;" parent="qgMPv3SP54ZubkrI89RQ-19" vertex="1">
          <mxGeometry x="80" y="150" width="100" height="30" as="geometry" />
        </mxCell>
        <mxCell id="OKTvD-fGKfTnypp5BjO2-20" style="edgeStyle=orthogonalEdgeStyle;rounded=0;orthogonalLoop=1;jettySize=auto;html=1;" parent="qgMPv3SP54ZubkrI89RQ-19" source="OKTvD-fGKfTnypp5BjO2-19" target="OKTvD-fGKfTnypp5BjO2-17" edge="1">
          <mxGeometry relative="1" as="geometry">
            <Array as="points">
              <mxPoint x="231" y="130" />
              <mxPoint x="160" y="130" />
            </Array>
          </mxGeometry>
        </mxCell>
        <mxCell id="OKTvD-fGKfTnypp5BjO2-19" value="El/los dispositivo/s&amp;nbsp; registrado/s" style="shape=note;whiteSpace=wrap;html=1;rounded=0;shadow=0;comic=0;labelBackgroundColor=none;strokeWidth=1;fontFamily=Verdana;fontSize=12;align=center;size=11;" parent="qgMPv3SP54ZubkrI89RQ-19" vertex="1">
          <mxGeometry x="162.5" y="50" width="137.5" height="70" as="geometry" />
        </mxCell>
        <mxCell id="qgMPv3SP54ZubkrI89RQ-43" value="API" style="swimlane;html=1;startSize=20;" parent="qgMPv3SP54ZubkrI89RQ-8" vertex="1">
          <mxGeometry x="510" y="20" width="220" height="450" as="geometry" />
        </mxCell>
        <mxCell id="OKTvD-fGKfTnypp5BjO2-26" style="edgeStyle=orthogonalEdgeStyle;rounded=0;orthogonalLoop=1;jettySize=auto;html=1;" parent="qgMPv3SP54ZubkrI89RQ-43" source="1MVDxf54JgNe-HN3kASA-5" target="OKTvD-fGKfTnypp5BjO2-25" edge="1">
          <mxGeometry relative="1" as="geometry">
            <mxPoint x="90" y="250" as="sourcePoint" />
            <Array as="points" />
          </mxGeometry>
        </mxCell>
        <mxCell id="OKTvD-fGKfTnypp5BjO2-25" value="Organizar datos" style="rounded=1;whiteSpace=wrap;html=1;shadow=0;comic=0;labelBackgroundColor=none;strokeWidth=1;fontFamily=Verdana;fontSize=12;align=center;arcSize=50;" parent="qgMPv3SP54ZubkrI89RQ-43" vertex="1">
          <mxGeometry x="40" y="294" width="100" height="30" as="geometry" />
        </mxCell>
        <mxCell id="1MVDxf54JgNe-HN3kASA-5" value="Recibir datos" style="rounded=1;whiteSpace=wrap;html=1;shadow=0;comic=0;labelBackgroundColor=none;strokeWidth=1;fontFamily=Verdana;fontSize=12;align=center;arcSize=50;" parent="qgMPv3SP54ZubkrI89RQ-43" vertex="1">
          <mxGeometry x="40" y="230" width="100" height="30" as="geometry" />
        </mxCell>
        <mxCell id="OKTvD-fGKfTnypp5BjO2-16" style="edgeStyle=orthogonalEdgeStyle;rounded=0;orthogonalLoop=1;jettySize=auto;html=1;" parent="qgMPv3SP54ZubkrI89RQ-43" target="1MVDxf54JgNe-HN3kASA-10" edge="1">
          <mxGeometry relative="1" as="geometry">
            <mxPoint x="100" y="160" as="targetPoint" />
            <Array as="points">
              <mxPoint x="530" y="130" />
              <mxPoint x="530" y="160" />
              <mxPoint x="430" y="160" />
              <mxPoint x="430" y="120" />
              <mxPoint x="100" y="120" />
            </Array>
            <mxPoint x="552.5999999999999" y="130" as="sourcePoint" />
          </mxGeometry>
        </mxCell>
        <mxCell id="1MVDxf54JgNe-HN3kASA-10" value="" style="whiteSpace=wrap;html=1;rounded=0;shadow=0;comic=0;labelBackgroundColor=none;strokeWidth=1;fillColor=#000000;fontFamily=Verdana;fontSize=12;align=center;rotation=0;" parent="qgMPv3SP54ZubkrI89RQ-43" vertex="1">
          <mxGeometry x="17.5" y="140" width="185" height="10" as="geometry" />
        </mxCell>
        <mxCell id="1MVDxf54JgNe-HN3kASA-13" value="Pedir datos" style="rounded=1;whiteSpace=wrap;html=1;shadow=0;comic=0;labelBackgroundColor=none;strokeWidth=1;fontFamily=Verdana;fontSize=12;align=center;arcSize=50;" parent="qgMPv3SP54ZubkrI89RQ-43" vertex="1">
          <mxGeometry x="82.5" y="360" width="100" height="30" as="geometry" />
        </mxCell>
        <mxCell id="1MVDxf54JgNe-HN3kASA-23" value="Enviar datos" style="rounded=1;whiteSpace=wrap;html=1;shadow=0;comic=0;labelBackgroundColor=none;strokeWidth=1;fontFamily=Verdana;fontSize=12;align=center;arcSize=50;" parent="qgMPv3SP54ZubkrI89RQ-43" vertex="1">
          <mxGeometry x="82.5" y="410" width="100" height="30" as="geometry" />
        </mxCell>
        <mxCell id="OKTvD-fGKfTnypp5BjO2-23" style="edgeStyle=orthogonalEdgeStyle;rounded=0;orthogonalLoop=1;jettySize=auto;html=1;" parent="qgMPv3SP54ZubkrI89RQ-8" source="OKTvD-fGKfTnypp5BjO2-17" target="1MVDxf54JgNe-HN3kASA-5" edge="1">
          <mxGeometry relative="1" as="geometry">
            <Array as="points">
              <mxPoint x="390" y="225" />
              <mxPoint x="600" y="225" />
            </Array>
            <mxPoint x="600" y="240" as="targetPoint" />
          </mxGeometry>
        </mxCell>
        <mxCell id="OKTvD-fGKfTnypp5BjO2-24" value="Cada x tiempo" style="edgeLabel;html=1;align=center;verticalAlign=middle;resizable=0;points=[];" parent="OKTvD-fGKfTnypp5BjO2-23" vertex="1" connectable="0">
          <mxGeometry x="-0.3232" y="-4" relative="1" as="geometry">
            <mxPoint y="-4" as="offset" />
          </mxGeometry>
        </mxCell>
        <mxCell id="OKTvD-fGKfTnypp5BjO2-27" style="edgeStyle=orthogonalEdgeStyle;rounded=0;orthogonalLoop=1;jettySize=auto;html=1;entryX=1;entryY=0.5;entryDx=0;entryDy=0;" parent="qgMPv3SP54ZubkrI89RQ-8" source="OKTvD-fGKfTnypp5BjO2-25" target="OKTvD-fGKfTnypp5BjO2-22" edge="1">
          <mxGeometry relative="1" as="geometry">
            <Array as="points">
              <mxPoint x="540" y="329" />
              <mxPoint x="540" y="280" />
              <mxPoint x="370" y="280" />
              <mxPoint x="370" y="269" />
            </Array>
            <mxPoint x="540" y="285" as="sourcePoint" />
          </mxGeometry>
        </mxCell>
        <mxCell id="qgMPv3SP54ZubkrI89RQ-73" value="Web" style="swimlane;html=1;startSize=20;" parent="qgMPv3SP54ZubkrI89RQ-8" vertex="1">
          <mxGeometry x="730" y="20" width="250" height="450" as="geometry" />
        </mxCell>
        <mxCell id="1MVDxf54JgNe-HN3kASA-6" value="Mostrar Dashboard" style="rounded=1;whiteSpace=wrap;html=1;shadow=0;comic=0;labelBackgroundColor=none;strokeWidth=1;fontFamily=Verdana;fontSize=12;align=center;arcSize=50;" parent="qgMPv3SP54ZubkrI89RQ-73" vertex="1">
          <mxGeometry x="120" y="325" width="100" height="30" as="geometry" />
        </mxCell>
        <mxCell id="1MVDxf54JgNe-HN3kASA-20" value="Pedir datos que mostrar" style="rounded=1;whiteSpace=wrap;html=1;shadow=0;comic=0;labelBackgroundColor=none;strokeWidth=1;fontFamily=Verdana;fontSize=12;align=center;arcSize=50;" parent="qgMPv3SP54ZubkrI89RQ-73" vertex="1">
          <mxGeometry x="30" y="210" width="100" height="30" as="geometry" />
        </mxCell>
        <mxCell id="qgMPv3SP54ZubkrI89RQ-90" value="Usuario" style="swimlane;html=1;startSize=20;" parent="qgMPv3SP54ZubkrI89RQ-8" vertex="1">
          <mxGeometry x="980" y="20" width="300" height="450" as="geometry" />
        </mxCell>
        <mxCell id="OKTvD-fGKfTnypp5BjO2-10" style="edgeStyle=orthogonalEdgeStyle;rounded=0;orthogonalLoop=1;jettySize=auto;html=1;" parent="qgMPv3SP54ZubkrI89RQ-90" source="OKTvD-fGKfTnypp5BjO2-4" target="OKTvD-fGKfTnypp5BjO2-14" edge="1">
          <mxGeometry relative="1" as="geometry">
            <Array as="points">
              <mxPoint x="125" y="120" />
              <mxPoint x="125" y="120" />
            </Array>
          </mxGeometry>
        </mxCell>
        <mxCell id="OKTvD-fGKfTnypp5BjO2-4" value="" style="ellipse;whiteSpace=wrap;html=1;rounded=0;shadow=0;comic=0;labelBackgroundColor=none;strokeWidth=1;fillColor=#000000;fontFamily=Verdana;fontSize=12;align=center;" parent="qgMPv3SP54ZubkrI89RQ-90" vertex="1">
          <mxGeometry x="105" y="50" width="40" height="40" as="geometry" />
        </mxCell>
        <mxCell id="OKTvD-fGKfTnypp5BjO2-8" style="edgeStyle=orthogonalEdgeStyle;rounded=0;orthogonalLoop=1;jettySize=auto;html=1;" parent="qgMPv3SP54ZubkrI89RQ-90" source="OKTvD-fGKfTnypp5BjO2-7" target="OKTvD-fGKfTnypp5BjO2-4" edge="1">
          <mxGeometry relative="1" as="geometry" />
        </mxCell>
        <mxCell id="OKTvD-fGKfTnypp5BjO2-7" value="Usuario Registrado" style="shape=note;whiteSpace=wrap;html=1;rounded=0;shadow=0;comic=0;labelBackgroundColor=none;strokeWidth=1;fontFamily=Verdana;fontSize=12;align=center;size=20;" parent="qgMPv3SP54ZubkrI89RQ-90" vertex="1">
          <mxGeometry x="180" y="42" width="90" height="56" as="geometry" />
        </mxCell>
        <mxCell id="OKTvD-fGKfTnypp5BjO2-12" value="" style="edgeStyle=orthogonalEdgeStyle;rounded=0;orthogonalLoop=1;jettySize=auto;html=1;exitX=0.75;exitY=1;exitDx=0;exitDy=0;" parent="qgMPv3SP54ZubkrI89RQ-90" source="OKTvD-fGKfTnypp5BjO2-30" target="OKTvD-fGKfTnypp5BjO2-13" edge="1">
          <mxGeometry relative="1" as="geometry">
            <mxPoint x="125" y="225" as="targetPoint" />
          </mxGeometry>
        </mxCell>
        <mxCell id="OKTvD-fGKfTnypp5BjO2-9" value="Inicio sesion" style="rounded=1;whiteSpace=wrap;html=1;shadow=0;comic=0;labelBackgroundColor=none;strokeWidth=1;fontFamily=Verdana;fontSize=12;align=center;arcSize=50;" parent="qgMPv3SP54ZubkrI89RQ-90" vertex="1">
          <mxGeometry x="75" y="160" width="100" height="30" as="geometry" />
        </mxCell>
        <mxCell id="1MVDxf54JgNe-HN3kASA-34" style="edgeStyle=orthogonalEdgeStyle;rounded=0;orthogonalLoop=1;jettySize=auto;html=1;" parent="qgMPv3SP54ZubkrI89RQ-90" source="OKTvD-fGKfTnypp5BjO2-13" target="1MVDxf54JgNe-HN3kASA-33" edge="1">
          <mxGeometry relative="1" as="geometry" />
        </mxCell>
        <mxCell id="OKTvD-fGKfTnypp5BjO2-13" value="Visualizar Dashboard" style="rounded=1;whiteSpace=wrap;html=1;shadow=0;comic=0;labelBackgroundColor=none;strokeWidth=1;fontFamily=Verdana;fontSize=12;align=center;arcSize=50;" parent="qgMPv3SP54ZubkrI89RQ-90" vertex="1">
          <mxGeometry x="80" y="320" width="100" height="30" as="geometry" />
        </mxCell>
        <mxCell id="OKTvD-fGKfTnypp5BjO2-15" style="edgeStyle=orthogonalEdgeStyle;rounded=0;orthogonalLoop=1;jettySize=auto;html=1;" parent="qgMPv3SP54ZubkrI89RQ-90" source="OKTvD-fGKfTnypp5BjO2-14" target="OKTvD-fGKfTnypp5BjO2-9" edge="1">
          <mxGeometry relative="1" as="geometry">
            <Array as="points">
              <mxPoint x="120" y="140" />
              <mxPoint x="120" y="140" />
            </Array>
          </mxGeometry>
        </mxCell>
        <mxCell id="OKTvD-fGKfTnypp5BjO2-14" value="" style="whiteSpace=wrap;html=1;rounded=0;shadow=0;comic=0;labelBackgroundColor=none;strokeWidth=1;fillColor=#000000;fontFamily=Verdana;fontSize=12;align=center;rotation=0;" parent="qgMPv3SP54ZubkrI89RQ-90" vertex="1">
          <mxGeometry x="20" y="120" width="185" height="10" as="geometry" />
        </mxCell>
        <mxCell id="OKTvD-fGKfTnypp5BjO2-30" value="" style="whiteSpace=wrap;html=1;rounded=0;shadow=0;comic=0;labelBackgroundColor=none;strokeWidth=1;fillColor=#000000;fontFamily=Verdana;fontSize=12;align=center;rotation=0;" parent="qgMPv3SP54ZubkrI89RQ-90" vertex="1">
          <mxGeometry x="-85" y="240" width="185" height="10" as="geometry" />
        </mxCell>
        <mxCell id="OKTvD-fGKfTnypp5BjO2-34" style="edgeStyle=orthogonalEdgeStyle;rounded=0;orthogonalLoop=1;jettySize=auto;html=1;" parent="qgMPv3SP54ZubkrI89RQ-90" source="OKTvD-fGKfTnypp5BjO2-9" target="OKTvD-fGKfTnypp5BjO2-30" edge="1">
          <mxGeometry relative="1" as="geometry">
            <Array as="points">
              <mxPoint x="125" y="215" />
              <mxPoint x="65" y="215" />
            </Array>
          </mxGeometry>
        </mxCell>
        <mxCell id="1MVDxf54JgNe-HN3kASA-33" value="" style="shape=mxgraph.bpmn.shape;html=1;verticalLabelPosition=bottom;labelBackgroundColor=#ffffff;verticalAlign=top;perimeter=ellipsePerimeter;outline=end;symbol=terminate;rounded=0;shadow=0;comic=0;strokeWidth=1;fontFamily=Verdana;fontSize=12;align=center;" parent="qgMPv3SP54ZubkrI89RQ-90" vertex="1">
          <mxGeometry x="110" y="390" width="40" height="40" as="geometry" />
        </mxCell>
        <mxCell id="1MVDxf54JgNe-HN3kASA-11" style="edgeStyle=orthogonalEdgeStyle;rounded=0;orthogonalLoop=1;jettySize=auto;html=1;" parent="qgMPv3SP54ZubkrI89RQ-8" source="1MVDxf54JgNe-HN3kASA-10" target="OKTvD-fGKfTnypp5BjO2-17" edge="1">
          <mxGeometry relative="1" as="geometry">
            <Array as="points">
              <mxPoint x="610" y="200" />
              <mxPoint x="469" y="200" />
              <mxPoint x="469" y="185" />
            </Array>
          </mxGeometry>
        </mxCell>
        <mxCell id="1MVDxf54JgNe-HN3kASA-16" style="edgeStyle=orthogonalEdgeStyle;rounded=0;orthogonalLoop=1;jettySize=auto;html=1;" parent="qgMPv3SP54ZubkrI89RQ-8" source="1MVDxf54JgNe-HN3kASA-6" target="OKTvD-fGKfTnypp5BjO2-30" edge="1">
          <mxGeometry relative="1" as="geometry">
            <Array as="points">
              <mxPoint x="900" y="240" />
              <mxPoint x="980" y="240" />
            </Array>
          </mxGeometry>
        </mxCell>
        <mxCell id="1MVDxf54JgNe-HN3kASA-18" style="edgeStyle=orthogonalEdgeStyle;rounded=0;orthogonalLoop=1;jettySize=auto;html=1;" parent="qgMPv3SP54ZubkrI89RQ-8" source="1MVDxf54JgNe-HN3kASA-13" target="OKTvD-fGKfTnypp5BjO2-29" edge="1">
          <mxGeometry relative="1" as="geometry">
            <Array as="points">
              <mxPoint x="500" y="395" />
              <mxPoint x="500" y="355" />
            </Array>
          </mxGeometry>
        </mxCell>
        <mxCell id="1MVDxf54JgNe-HN3kASA-21" style="edgeStyle=orthogonalEdgeStyle;rounded=0;orthogonalLoop=1;jettySize=auto;html=1;entryX=1;entryY=0.5;entryDx=0;entryDy=0;" parent="qgMPv3SP54ZubkrI89RQ-8" source="1MVDxf54JgNe-HN3kASA-20" target="1MVDxf54JgNe-HN3kASA-13" edge="1">
          <mxGeometry relative="1" as="geometry">
            <Array as="points">
              <mxPoint x="830" y="395" />
            </Array>
          </mxGeometry>
        </mxCell>
        <mxCell id="1MVDxf54JgNe-HN3kASA-22" style="edgeStyle=orthogonalEdgeStyle;rounded=0;orthogonalLoop=1;jettySize=auto;html=1;" parent="qgMPv3SP54ZubkrI89RQ-8" source="1MVDxf54JgNe-HN3kASA-10" target="1MVDxf54JgNe-HN3kASA-20" edge="1">
          <mxGeometry relative="1" as="geometry">
            <Array as="points">
              <mxPoint x="670" y="200" />
              <mxPoint x="830" y="200" />
            </Array>
          </mxGeometry>
        </mxCell>
        <mxCell id="1MVDxf54JgNe-HN3kASA-31" style="edgeStyle=orthogonalEdgeStyle;rounded=0;orthogonalLoop=1;jettySize=auto;html=1;" parent="qgMPv3SP54ZubkrI89RQ-8" source="OKTvD-fGKfTnypp5BjO2-29" target="1MVDxf54JgNe-HN3kASA-23" edge="1">
          <mxGeometry relative="1" as="geometry">
            <Array as="points">
              <mxPoint x="100" y="440" />
            </Array>
          </mxGeometry>
        </mxCell>
        <mxCell id="1MVDxf54JgNe-HN3kASA-32" style="edgeStyle=orthogonalEdgeStyle;rounded=0;orthogonalLoop=1;jettySize=auto;html=1;" parent="qgMPv3SP54ZubkrI89RQ-8" source="1MVDxf54JgNe-HN3kASA-23" target="1MVDxf54JgNe-HN3kASA-6" edge="1">
          <mxGeometry relative="1" as="geometry" />
        </mxCell>
        <mxCell id="29qD2QvMl3Nega16LxBb-1" value="Agregar Dispositivo" style="swimlane;html=1;childLayout=stackLayout;startSize=20;rounded=0;shadow=0;comic=0;labelBackgroundColor=none;strokeWidth=1;fontFamily=Verdana;fontSize=12;align=center;" parent="1" vertex="1">
          <mxGeometry x="-400" y="825" width="1310" height="1130" as="geometry" />
        </mxCell>
        <mxCell id="29qD2QvMl3Nega16LxBb-2" value="Base de datos" style="swimlane;html=1;startSize=20;" parent="29qD2QvMl3Nega16LxBb-1" vertex="1">
          <mxGeometry y="20" width="230" height="1110" as="geometry" />
        </mxCell>
        <mxCell id="1MVDxf54JgNe-HN3kASA-60" value="Guardar datos de dispositivo" style="rounded=1;whiteSpace=wrap;html=1;shadow=0;comic=0;labelBackgroundColor=none;strokeWidth=1;fontFamily=Verdana;fontSize=12;align=center;arcSize=50;" parent="29qD2QvMl3Nega16LxBb-2" vertex="1">
          <mxGeometry x="40" y="670" width="110" height="60" as="geometry" />
        </mxCell>
        <mxCell id="29qD2QvMl3Nega16LxBb-3" value="Dispositivo" style="swimlane;html=1;startSize=20;" parent="29qD2QvMl3Nega16LxBb-1" vertex="1">
          <mxGeometry x="230" y="20" width="230" height="1110" as="geometry" />
        </mxCell>
        <mxCell id="1MVDxf54JgNe-HN3kASA-58" value="Encender dispositivo" style="rounded=1;whiteSpace=wrap;html=1;shadow=0;comic=0;labelBackgroundColor=none;strokeWidth=1;fontFamily=Verdana;fontSize=12;align=center;arcSize=50;" parent="29qD2QvMl3Nega16LxBb-3" vertex="1">
          <mxGeometry x="71.26" y="80" width="100" height="30" as="geometry" />
        </mxCell>
        <mxCell id="1MVDxf54JgNe-HN3kASA-59" value="Mostrar Identificacion mediante display" style="rounded=1;whiteSpace=wrap;html=1;shadow=0;comic=0;labelBackgroundColor=none;strokeWidth=1;fontFamily=Verdana;fontSize=12;align=center;arcSize=50;" parent="29qD2QvMl3Nega16LxBb-3" vertex="1">
          <mxGeometry x="52.51" y="440" width="118.75" height="60" as="geometry" />
        </mxCell>
        <mxCell id="TZxjagtBM15yJBJZG-NF-7" value="Conectar a la red Wifi" style="rounded=1;whiteSpace=wrap;html=1;shadow=0;comic=0;labelBackgroundColor=none;strokeWidth=1;fontFamily=Verdana;fontSize=12;align=center;arcSize=50;" vertex="1" parent="29qD2QvMl3Nega16LxBb-3">
          <mxGeometry x="52.50999999999999" y="250" width="118.75" height="60" as="geometry" />
        </mxCell>
        <mxCell id="29qD2QvMl3Nega16LxBb-4" value="API" style="swimlane;html=1;startSize=20;" parent="29qD2QvMl3Nega16LxBb-1" vertex="1">
          <mxGeometry x="460" y="20" width="220" height="1110" as="geometry" />
        </mxCell>
        <mxCell id="TZxjagtBM15yJBJZG-NF-1" value="Enviar datos del nuevo dispositivo" style="rounded=1;whiteSpace=wrap;html=1;shadow=0;comic=0;labelBackgroundColor=none;strokeWidth=1;fontFamily=Verdana;fontSize=12;align=center;arcSize=50;" vertex="1" parent="29qD2QvMl3Nega16LxBb-4">
          <mxGeometry x="20" y="700" width="120" height="50" as="geometry" />
        </mxCell>
        <mxCell id="TZxjagtBM15yJBJZG-NF-15" value="Crear identificador de dispositivo" style="rounded=1;whiteSpace=wrap;html=1;shadow=0;comic=0;labelBackgroundColor=none;strokeWidth=1;fontFamily=Verdana;fontSize=12;align=center;arcSize=50;" vertex="1" parent="29qD2QvMl3Nega16LxBb-4">
          <mxGeometry x="60" y="320" width="120" height="50" as="geometry" />
        </mxCell>
        <mxCell id="TZxjagtBM15yJBJZG-NF-33" value="Notificar Nuevo dispositivo" style="rounded=1;whiteSpace=wrap;html=1;shadow=0;comic=0;labelBackgroundColor=none;strokeWidth=1;fontFamily=Verdana;fontSize=12;align=center;arcSize=50;" vertex="1" parent="29qD2QvMl3Nega16LxBb-4">
          <mxGeometry x="40" y="910" width="120" height="50" as="geometry" />
        </mxCell>
        <mxCell id="29qD2QvMl3Nega16LxBb-5" value="Web" style="swimlane;html=1;startSize=20;" parent="29qD2QvMl3Nega16LxBb-1" vertex="1">
          <mxGeometry x="680" y="20" width="260" height="1110" as="geometry" />
        </mxCell>
        <mxCell id="1MVDxf54JgNe-HN3kASA-61" value="Notificar que el dispositivo a sido asignado correctamente" style="rounded=1;whiteSpace=wrap;html=1;shadow=0;comic=0;labelBackgroundColor=none;strokeWidth=1;fontFamily=Verdana;fontSize=12;align=center;arcSize=50;" parent="29qD2QvMl3Nega16LxBb-5" vertex="1">
          <mxGeometry x="67.5" y="870" width="125" height="70" as="geometry" />
        </mxCell>
        <mxCell id="TZxjagtBM15yJBJZG-NF-23" value="" style="shape=mxgraph.bpmn.shape;html=1;verticalLabelPosition=bottom;labelBackgroundColor=#ffffff;verticalAlign=top;perimeter=ellipsePerimeter;outline=end;symbol=terminate;rounded=0;shadow=0;comic=0;strokeWidth=1;fontFamily=Verdana;fontSize=12;align=center;" vertex="1" parent="29qD2QvMl3Nega16LxBb-5">
          <mxGeometry x="110" y="1030" width="40" height="40" as="geometry" />
        </mxCell>
        <mxCell id="TZxjagtBM15yJBJZG-NF-24" style="edgeStyle=orthogonalEdgeStyle;rounded=0;orthogonalLoop=1;jettySize=auto;html=1;" edge="1" parent="29qD2QvMl3Nega16LxBb-5" source="1MVDxf54JgNe-HN3kASA-61" target="TZxjagtBM15yJBJZG-NF-23">
          <mxGeometry relative="1" as="geometry">
            <mxPoint x="130.00000000000045" y="910" as="targetPoint" />
          </mxGeometry>
        </mxCell>
        <mxCell id="TZxjagtBM15yJBJZG-NF-73" value="Envair datos del formulario" style="rounded=1;whiteSpace=wrap;html=1;shadow=0;comic=0;labelBackgroundColor=none;strokeWidth=1;fontFamily=Verdana;fontSize=12;align=center;arcSize=50;" vertex="1" parent="29qD2QvMl3Nega16LxBb-5">
          <mxGeometry x="60" y="700" width="140" height="60" as="geometry" />
        </mxCell>
        <mxCell id="1MVDxf54JgNe-HN3kASA-56" style="edgeStyle=orthogonalEdgeStyle;rounded=0;orthogonalLoop=1;jettySize=auto;html=1;" parent="29qD2QvMl3Nega16LxBb-1" source="1MVDxf54JgNe-HN3kASA-53" target="1MVDxf54JgNe-HN3kASA-58" edge="1">
          <mxGeometry relative="1" as="geometry" />
        </mxCell>
        <mxCell id="29qD2QvMl3Nega16LxBb-6" value="Usuario" style="swimlane;html=1;startSize=20;" parent="29qD2QvMl3Nega16LxBb-1" vertex="1">
          <mxGeometry x="940" y="20" width="370" height="1110" as="geometry" />
        </mxCell>
        <mxCell id="TZxjagtBM15yJBJZG-NF-9" style="edgeStyle=orthogonalEdgeStyle;rounded=0;orthogonalLoop=1;jettySize=auto;html=1;" edge="1" parent="29qD2QvMl3Nega16LxBb-6" source="1MVDxf54JgNe-HN3kASA-52" target="TZxjagtBM15yJBJZG-NF-4">
          <mxGeometry relative="1" as="geometry" />
        </mxCell>
        <mxCell id="1MVDxf54JgNe-HN3kASA-52" value="Inicio sesion" style="rounded=1;whiteSpace=wrap;html=1;shadow=0;comic=0;labelBackgroundColor=none;strokeWidth=1;fontFamily=Verdana;fontSize=12;align=center;arcSize=50;" parent="29qD2QvMl3Nega16LxBb-6" vertex="1">
          <mxGeometry x="63.629999999999995" y="260" width="100" height="30" as="geometry" />
        </mxCell>
        <mxCell id="1MVDxf54JgNe-HN3kASA-53" value="" style="ellipse;whiteSpace=wrap;html=1;rounded=0;shadow=0;comic=0;labelBackgroundColor=none;strokeWidth=1;fillColor=#000000;fontFamily=Verdana;fontSize=12;align=center;" parent="29qD2QvMl3Nega16LxBb-6" vertex="1">
          <mxGeometry x="60" y="58" width="40" height="40" as="geometry" />
        </mxCell>
        <mxCell id="1MVDxf54JgNe-HN3kASA-54" style="edgeStyle=orthogonalEdgeStyle;rounded=0;orthogonalLoop=1;jettySize=auto;html=1;" parent="29qD2QvMl3Nega16LxBb-6" source="1MVDxf54JgNe-HN3kASA-55" target="1MVDxf54JgNe-HN3kASA-53" edge="1">
          <mxGeometry relative="1" as="geometry" />
        </mxCell>
        <mxCell id="1MVDxf54JgNe-HN3kASA-55" value="Usuario Registrado" style="shape=note;whiteSpace=wrap;html=1;rounded=0;shadow=0;comic=0;labelBackgroundColor=none;strokeWidth=1;fontFamily=Verdana;fontSize=12;align=center;size=20;" parent="29qD2QvMl3Nega16LxBb-6" vertex="1">
          <mxGeometry x="135" y="50" width="90" height="56" as="geometry" />
        </mxCell>
        <mxCell id="TZxjagtBM15yJBJZG-NF-10" style="edgeStyle=orthogonalEdgeStyle;rounded=0;orthogonalLoop=1;jettySize=auto;html=1;" edge="1" parent="29qD2QvMl3Nega16LxBb-6" source="TZxjagtBM15yJBJZG-NF-4" target="TZxjagtBM15yJBJZG-NF-6">
          <mxGeometry relative="1" as="geometry" />
        </mxCell>
        <mxCell id="TZxjagtBM15yJBJZG-NF-4" value="Abrir el menu desplagle de la pagina" style="rounded=1;whiteSpace=wrap;html=1;shadow=0;comic=0;labelBackgroundColor=none;strokeWidth=1;fontFamily=Verdana;fontSize=12;align=center;arcSize=50;" vertex="1" parent="29qD2QvMl3Nega16LxBb-6">
          <mxGeometry x="210" y="340" width="118.75" height="60" as="geometry" />
        </mxCell>
        <mxCell id="TZxjagtBM15yJBJZG-NF-11" style="edgeStyle=orthogonalEdgeStyle;rounded=0;orthogonalLoop=1;jettySize=auto;html=1;" edge="1" parent="29qD2QvMl3Nega16LxBb-6" source="TZxjagtBM15yJBJZG-NF-6" target="TZxjagtBM15yJBJZG-NF-8">
          <mxGeometry relative="1" as="geometry" />
        </mxCell>
        <mxCell id="TZxjagtBM15yJBJZG-NF-6" value="Seleccionar observar todos los dispositivos" style="rounded=1;whiteSpace=wrap;html=1;shadow=0;comic=0;labelBackgroundColor=none;strokeWidth=1;fontFamily=Verdana;fontSize=12;align=center;arcSize=50;" vertex="1" parent="29qD2QvMl3Nega16LxBb-6">
          <mxGeometry x="46.24" y="410" width="118.75" height="60" as="geometry" />
        </mxCell>
        <mxCell id="TZxjagtBM15yJBJZG-NF-20" style="edgeStyle=orthogonalEdgeStyle;rounded=0;orthogonalLoop=1;jettySize=auto;html=1;" edge="1" parent="29qD2QvMl3Nega16LxBb-6" source="TZxjagtBM15yJBJZG-NF-8" target="TZxjagtBM15yJBJZG-NF-2">
          <mxGeometry relative="1" as="geometry" />
        </mxCell>
        <mxCell id="TZxjagtBM15yJBJZG-NF-21" style="edgeStyle=orthogonalEdgeStyle;rounded=0;orthogonalLoop=1;jettySize=auto;html=1;" edge="1" parent="29qD2QvMl3Nega16LxBb-6" source="TZxjagtBM15yJBJZG-NF-2" target="TZxjagtBM15yJBJZG-NF-13">
          <mxGeometry relative="1" as="geometry">
            <Array as="points">
              <mxPoint x="280" y="600" />
            </Array>
          </mxGeometry>
        </mxCell>
        <mxCell id="TZxjagtBM15yJBJZG-NF-8" value="Seleccionar Registrar nuevo dispositivo" style="rounded=1;whiteSpace=wrap;html=1;shadow=0;comic=0;labelBackgroundColor=none;strokeWidth=1;fontFamily=Verdana;fontSize=12;align=center;arcSize=50;" vertex="1" parent="29qD2QvMl3Nega16LxBb-6">
          <mxGeometry x="210" y="490" width="118.75" height="60" as="geometry" />
        </mxCell>
        <mxCell id="TZxjagtBM15yJBJZG-NF-22" style="edgeStyle=orthogonalEdgeStyle;rounded=0;orthogonalLoop=1;jettySize=auto;html=1;" edge="1" parent="29qD2QvMl3Nega16LxBb-6" source="TZxjagtBM15yJBJZG-NF-2" target="TZxjagtBM15yJBJZG-NF-12">
          <mxGeometry relative="1" as="geometry" />
        </mxCell>
        <mxCell id="TZxjagtBM15yJBJZG-NF-2" value="Llenar formulario de datos del dispositivo" style="rounded=1;whiteSpace=wrap;html=1;shadow=0;comic=0;labelBackgroundColor=none;strokeWidth=1;fontFamily=Verdana;fontSize=12;align=center;arcSize=50;" vertex="1" parent="29qD2QvMl3Nega16LxBb-6">
          <mxGeometry x="35.00000000000001" y="570" width="140" height="60" as="geometry" />
        </mxCell>
        <mxCell id="TZxjagtBM15yJBJZG-NF-28" style="edgeStyle=orthogonalEdgeStyle;rounded=0;orthogonalLoop=1;jettySize=auto;html=1;" edge="1" parent="29qD2QvMl3Nega16LxBb-6" source="TZxjagtBM15yJBJZG-NF-12" target="TZxjagtBM15yJBJZG-NF-27">
          <mxGeometry relative="1" as="geometry" />
        </mxCell>
        <mxCell id="TZxjagtBM15yJBJZG-NF-12" value="Poner nombre de dispositivo" style="rounded=1;whiteSpace=wrap;html=1;shadow=0;comic=0;labelBackgroundColor=none;strokeWidth=1;fontFamily=Verdana;fontSize=12;align=center;arcSize=50;" vertex="1" parent="29qD2QvMl3Nega16LxBb-6">
          <mxGeometry x="35" y="675" width="140" height="60" as="geometry" />
        </mxCell>
        <mxCell id="TZxjagtBM15yJBJZG-NF-29" style="edgeStyle=orthogonalEdgeStyle;rounded=0;orthogonalLoop=1;jettySize=auto;html=1;" edge="1" parent="29qD2QvMl3Nega16LxBb-6" source="TZxjagtBM15yJBJZG-NF-13" target="TZxjagtBM15yJBJZG-NF-27">
          <mxGeometry relative="1" as="geometry">
            <Array as="points">
              <mxPoint x="280" y="793" />
              <mxPoint x="200" y="793" />
            </Array>
          </mxGeometry>
        </mxCell>
        <mxCell id="TZxjagtBM15yJBJZG-NF-13" value="Poner identificacion de dispositivo" style="rounded=1;whiteSpace=wrap;html=1;shadow=0;comic=0;labelBackgroundColor=none;strokeWidth=1;fontFamily=Verdana;fontSize=12;align=center;arcSize=50;" vertex="1" parent="29qD2QvMl3Nega16LxBb-6">
          <mxGeometry x="210" y="675" width="140" height="60" as="geometry" />
        </mxCell>
        <mxCell id="TZxjagtBM15yJBJZG-NF-3" value="Conectar el dispositivo al computador mediante usb" style="rounded=1;whiteSpace=wrap;html=1;shadow=0;comic=0;labelBackgroundColor=none;strokeWidth=1;fontFamily=Verdana;fontSize=12;align=center;arcSize=50;" vertex="1" parent="29qD2QvMl3Nega16LxBb-6">
          <mxGeometry x="46.24000000000001" y="150" width="118.75" height="60" as="geometry" />
        </mxCell>
        <mxCell id="TZxjagtBM15yJBJZG-NF-27" value="Crear nuevo dispositivo" style="rounded=1;whiteSpace=wrap;html=1;shadow=0;comic=0;labelBackgroundColor=none;strokeWidth=1;fontFamily=Verdana;fontSize=12;align=center;arcSize=50;" vertex="1" parent="29qD2QvMl3Nega16LxBb-6">
          <mxGeometry x="85" y="850" width="140" height="60" as="geometry" />
        </mxCell>
        <mxCell id="TZxjagtBM15yJBJZG-NF-14" style="edgeStyle=orthogonalEdgeStyle;rounded=0;orthogonalLoop=1;jettySize=auto;html=1;" edge="1" parent="29qD2QvMl3Nega16LxBb-1" source="1MVDxf54JgNe-HN3kASA-58" target="TZxjagtBM15yJBJZG-NF-3">
          <mxGeometry relative="1" as="geometry">
            <Array as="points">
              <mxPoint x="351" y="190" />
            </Array>
          </mxGeometry>
        </mxCell>
        <mxCell id="TZxjagtBM15yJBJZG-NF-16" style="edgeStyle=orthogonalEdgeStyle;rounded=0;orthogonalLoop=1;jettySize=auto;html=1;" edge="1" parent="29qD2QvMl3Nega16LxBb-1" source="TZxjagtBM15yJBJZG-NF-15" target="1MVDxf54JgNe-HN3kASA-59">
          <mxGeometry relative="1" as="geometry">
            <Array as="points">
              <mxPoint x="580" y="410" />
              <mxPoint x="351" y="410" />
            </Array>
          </mxGeometry>
        </mxCell>
        <mxCell id="TZxjagtBM15yJBJZG-NF-17" style="edgeStyle=orthogonalEdgeStyle;rounded=0;orthogonalLoop=1;jettySize=auto;html=1;" edge="1" parent="29qD2QvMl3Nega16LxBb-1" source="TZxjagtBM15yJBJZG-NF-7" target="TZxjagtBM15yJBJZG-NF-15">
          <mxGeometry relative="1" as="geometry" />
        </mxCell>
        <mxCell id="TZxjagtBM15yJBJZG-NF-18" style="edgeStyle=orthogonalEdgeStyle;rounded=0;orthogonalLoop=1;jettySize=auto;html=1;" edge="1" parent="29qD2QvMl3Nega16LxBb-1" source="TZxjagtBM15yJBJZG-NF-3" target="TZxjagtBM15yJBJZG-NF-7">
          <mxGeometry relative="1" as="geometry">
            <Array as="points">
              <mxPoint x="342" y="220" />
            </Array>
          </mxGeometry>
        </mxCell>
        <mxCell id="TZxjagtBM15yJBJZG-NF-19" style="edgeStyle=orthogonalEdgeStyle;rounded=0;orthogonalLoop=1;jettySize=auto;html=1;" edge="1" parent="29qD2QvMl3Nega16LxBb-1" source="1MVDxf54JgNe-HN3kASA-59" target="1MVDxf54JgNe-HN3kASA-52">
          <mxGeometry relative="1" as="geometry">
            <Array as="points">
              <mxPoint x="770" y="490" />
              <mxPoint x="770" y="300" />
            </Array>
          </mxGeometry>
        </mxCell>
        <mxCell id="TZxjagtBM15yJBJZG-NF-31" style="edgeStyle=orthogonalEdgeStyle;rounded=0;orthogonalLoop=1;jettySize=auto;html=1;" edge="1" parent="29qD2QvMl3Nega16LxBb-1" source="TZxjagtBM15yJBJZG-NF-1" target="1MVDxf54JgNe-HN3kASA-60">
          <mxGeometry relative="1" as="geometry" />
        </mxCell>
        <mxCell id="TZxjagtBM15yJBJZG-NF-34" style="edgeStyle=orthogonalEdgeStyle;rounded=0;orthogonalLoop=1;jettySize=auto;html=1;" edge="1" parent="29qD2QvMl3Nega16LxBb-1" source="1MVDxf54JgNe-HN3kASA-60" target="TZxjagtBM15yJBJZG-NF-33">
          <mxGeometry relative="1" as="geometry">
            <Array as="points">
              <mxPoint x="95" y="955" />
            </Array>
          </mxGeometry>
        </mxCell>
        <mxCell id="TZxjagtBM15yJBJZG-NF-35" style="edgeStyle=orthogonalEdgeStyle;rounded=0;orthogonalLoop=1;jettySize=auto;html=1;" edge="1" parent="29qD2QvMl3Nega16LxBb-1" source="TZxjagtBM15yJBJZG-NF-33" target="1MVDxf54JgNe-HN3kASA-61">
          <mxGeometry relative="1" as="geometry" />
        </mxCell>
        <mxCell id="TZxjagtBM15yJBJZG-NF-74" style="edgeStyle=orthogonalEdgeStyle;rounded=0;orthogonalLoop=1;jettySize=auto;html=1;" edge="1" parent="29qD2QvMl3Nega16LxBb-1" source="TZxjagtBM15yJBJZG-NF-27" target="TZxjagtBM15yJBJZG-NF-73">
          <mxGeometry relative="1" as="geometry">
            <Array as="points">
              <mxPoint x="940" y="900" />
              <mxPoint x="940" y="750" />
            </Array>
          </mxGeometry>
        </mxCell>
        <mxCell id="TZxjagtBM15yJBJZG-NF-75" style="edgeStyle=orthogonalEdgeStyle;rounded=0;orthogonalLoop=1;jettySize=auto;html=1;" edge="1" parent="29qD2QvMl3Nega16LxBb-1" source="TZxjagtBM15yJBJZG-NF-73" target="TZxjagtBM15yJBJZG-NF-1">
          <mxGeometry relative="1" as="geometry" />
        </mxCell>
        <mxCell id="29qD2QvMl3Nega16LxBb-7" value="Actualizar contraseña" style="swimlane;html=1;childLayout=stackLayout;startSize=20;rounded=0;shadow=0;comic=0;labelBackgroundColor=none;strokeWidth=1;fontFamily=Verdana;fontSize=12;align=center;" parent="1" vertex="1">
          <mxGeometry x="1260" y="1050" width="930" height="950" as="geometry" />
        </mxCell>
        <mxCell id="29qD2QvMl3Nega16LxBb-8" value="Base de datos" style="swimlane;html=1;startSize=20;" parent="29qD2QvMl3Nega16LxBb-7" vertex="1">
          <mxGeometry y="20" width="230" height="930" as="geometry" />
        </mxCell>
        <mxCell id="1MVDxf54JgNe-HN3kASA-70" value="Actualizar base de datos con la contraseña nueva" style="rounded=1;whiteSpace=wrap;html=1;shadow=0;comic=0;labelBackgroundColor=none;strokeWidth=1;fontFamily=Verdana;fontSize=12;align=center;arcSize=50;" parent="29qD2QvMl3Nega16LxBb-8" vertex="1">
          <mxGeometry x="45" y="559" width="125" height="64" as="geometry" />
        </mxCell>
        <mxCell id="29qD2QvMl3Nega16LxBb-10" value="API" style="swimlane;html=1;startSize=20;" parent="29qD2QvMl3Nega16LxBb-7" vertex="1">
          <mxGeometry x="230" y="20" width="220" height="930" as="geometry" />
        </mxCell>
        <mxCell id="1MVDxf54JgNe-HN3kASA-71" value="Enviar contraseña nueva" style="rounded=1;whiteSpace=wrap;html=1;shadow=0;comic=0;labelBackgroundColor=none;strokeWidth=1;fontFamily=Verdana;fontSize=12;align=center;arcSize=50;" parent="29qD2QvMl3Nega16LxBb-10" vertex="1">
          <mxGeometry x="55" y="580" width="100" height="43" as="geometry" />
        </mxCell>
        <mxCell id="TZxjagtBM15yJBJZG-NF-81" value="Notificar cambio de contraseña" style="rounded=1;whiteSpace=wrap;html=1;shadow=0;comic=0;labelBackgroundColor=none;strokeWidth=1;fontFamily=Verdana;fontSize=12;align=center;arcSize=50;" vertex="1" parent="29qD2QvMl3Nega16LxBb-10">
          <mxGeometry x="45" y="747" width="115" height="63" as="geometry" />
        </mxCell>
        <mxCell id="29qD2QvMl3Nega16LxBb-11" value="Web" style="swimlane;html=1;startSize=20;" parent="29qD2QvMl3Nega16LxBb-7" vertex="1">
          <mxGeometry x="450" y="20" width="230" height="930" as="geometry" />
        </mxCell>
        <mxCell id="TZxjagtBM15yJBJZG-NF-64" style="edgeStyle=orthogonalEdgeStyle;rounded=0;orthogonalLoop=1;jettySize=auto;html=1;" edge="1" parent="29qD2QvMl3Nega16LxBb-11" source="1MVDxf54JgNe-HN3kASA-72" target="1MVDxf54JgNe-HN3kASA-74">
          <mxGeometry relative="1" as="geometry" />
        </mxCell>
        <mxCell id="1MVDxf54JgNe-HN3kASA-72" value="Notificar que el cambio de contraseña fue exitoso" style="rounded=1;whiteSpace=wrap;html=1;shadow=0;comic=0;labelBackgroundColor=none;strokeWidth=1;fontFamily=Verdana;fontSize=12;align=center;arcSize=50;" parent="29qD2QvMl3Nega16LxBb-11" vertex="1">
          <mxGeometry x="45" y="750" width="115" height="70" as="geometry" />
        </mxCell>
        <mxCell id="1MVDxf54JgNe-HN3kASA-74" value="" style="shape=mxgraph.bpmn.shape;html=1;verticalLabelPosition=bottom;labelBackgroundColor=#ffffff;verticalAlign=top;perimeter=ellipsePerimeter;outline=end;symbol=terminate;rounded=0;shadow=0;comic=0;strokeWidth=1;fontFamily=Verdana;fontSize=12;align=center;" parent="29qD2QvMl3Nega16LxBb-11" vertex="1">
          <mxGeometry x="90" y="860" width="40" height="40" as="geometry" />
        </mxCell>
        <mxCell id="TZxjagtBM15yJBJZG-NF-68" value="Notificar que la contraseña no es valida" style="rounded=1;whiteSpace=wrap;html=1;shadow=0;comic=0;labelBackgroundColor=none;strokeWidth=1;fontFamily=Verdana;fontSize=12;align=center;arcSize=50;" vertex="1" parent="29qD2QvMl3Nega16LxBb-11">
          <mxGeometry x="52.5" y="380" width="115" height="70" as="geometry" />
        </mxCell>
        <mxCell id="TZxjagtBM15yJBJZG-NF-72" value="Enviar contraseña cambiada" style="rounded=1;whiteSpace=wrap;html=1;shadow=0;comic=0;labelBackgroundColor=none;strokeWidth=1;fontFamily=Verdana;fontSize=12;align=center;arcSize=50;" vertex="1" parent="29qD2QvMl3Nega16LxBb-11">
          <mxGeometry x="25" y="630" width="115" height="70" as="geometry" />
        </mxCell>
        <mxCell id="29qD2QvMl3Nega16LxBb-12" value="Usuario" style="swimlane;html=1;startSize=20;" parent="29qD2QvMl3Nega16LxBb-7" vertex="1">
          <mxGeometry x="680" y="20" width="250" height="930" as="geometry" />
        </mxCell>
        <mxCell id="TZxjagtBM15yJBJZG-NF-37" style="edgeStyle=orthogonalEdgeStyle;rounded=0;orthogonalLoop=1;jettySize=auto;html=1;" edge="1" parent="29qD2QvMl3Nega16LxBb-12" source="1MVDxf54JgNe-HN3kASA-65" target="TZxjagtBM15yJBJZG-NF-36">
          <mxGeometry relative="1" as="geometry" />
        </mxCell>
        <mxCell id="1MVDxf54JgNe-HN3kASA-65" value="Inicio sesion" style="rounded=1;whiteSpace=wrap;html=1;shadow=0;comic=0;labelBackgroundColor=none;strokeWidth=1;fontFamily=Verdana;fontSize=12;align=center;arcSize=50;" parent="29qD2QvMl3Nega16LxBb-12" vertex="1">
          <mxGeometry x="40" y="140" width="100" height="30" as="geometry" />
        </mxCell>
        <mxCell id="1MVDxf54JgNe-HN3kASA-66" style="edgeStyle=orthogonalEdgeStyle;rounded=0;orthogonalLoop=1;jettySize=auto;html=1;" parent="29qD2QvMl3Nega16LxBb-12" source="1MVDxf54JgNe-HN3kASA-67" target="1MVDxf54JgNe-HN3kASA-65" edge="1">
          <mxGeometry relative="1" as="geometry" />
        </mxCell>
        <mxCell id="1MVDxf54JgNe-HN3kASA-67" value="" style="ellipse;whiteSpace=wrap;html=1;rounded=0;shadow=0;comic=0;labelBackgroundColor=none;strokeWidth=1;fillColor=#000000;fontFamily=Verdana;fontSize=12;align=center;" parent="29qD2QvMl3Nega16LxBb-12" vertex="1">
          <mxGeometry x="70" y="48" width="40" height="40" as="geometry" />
        </mxCell>
        <mxCell id="1MVDxf54JgNe-HN3kASA-68" style="edgeStyle=orthogonalEdgeStyle;rounded=0;orthogonalLoop=1;jettySize=auto;html=1;" parent="29qD2QvMl3Nega16LxBb-12" source="1MVDxf54JgNe-HN3kASA-69" target="1MVDxf54JgNe-HN3kASA-67" edge="1">
          <mxGeometry relative="1" as="geometry" />
        </mxCell>
        <mxCell id="1MVDxf54JgNe-HN3kASA-69" value="Usuario Registrado" style="shape=note;whiteSpace=wrap;html=1;rounded=0;shadow=0;comic=0;labelBackgroundColor=none;strokeWidth=1;fontFamily=Verdana;fontSize=12;align=center;size=20;" parent="29qD2QvMl3Nega16LxBb-12" vertex="1">
          <mxGeometry x="145" y="40" width="90" height="56" as="geometry" />
        </mxCell>
        <mxCell id="TZxjagtBM15yJBJZG-NF-39" style="edgeStyle=orthogonalEdgeStyle;rounded=0;orthogonalLoop=1;jettySize=auto;html=1;" edge="1" parent="29qD2QvMl3Nega16LxBb-12" source="TZxjagtBM15yJBJZG-NF-36" target="TZxjagtBM15yJBJZG-NF-38">
          <mxGeometry relative="1" as="geometry" />
        </mxCell>
        <mxCell id="TZxjagtBM15yJBJZG-NF-36" value="Abrir el menu desplagle de la pagina" style="rounded=1;whiteSpace=wrap;html=1;shadow=0;comic=0;labelBackgroundColor=none;strokeWidth=1;fontFamily=Verdana;fontSize=12;align=center;arcSize=50;" vertex="1" parent="29qD2QvMl3Nega16LxBb-12">
          <mxGeometry x="40" y="230" width="118.75" height="60" as="geometry" />
        </mxCell>
        <mxCell id="TZxjagtBM15yJBJZG-NF-62" style="edgeStyle=orthogonalEdgeStyle;rounded=0;orthogonalLoop=1;jettySize=auto;html=1;" edge="1" parent="29qD2QvMl3Nega16LxBb-12" source="TZxjagtBM15yJBJZG-NF-38" target="TZxjagtBM15yJBJZG-NF-60">
          <mxGeometry relative="1" as="geometry" />
        </mxCell>
        <mxCell id="TZxjagtBM15yJBJZG-NF-38" value="Seleccionar Configuracion de Cuenta" style="rounded=1;whiteSpace=wrap;html=1;shadow=0;comic=0;labelBackgroundColor=none;strokeWidth=1;fontFamily=Verdana;fontSize=12;align=center;arcSize=50;" vertex="1" parent="29qD2QvMl3Nega16LxBb-12">
          <mxGeometry x="45" y="330" width="118.75" height="60" as="geometry" />
        </mxCell>
        <mxCell id="TZxjagtBM15yJBJZG-NF-63" style="edgeStyle=orthogonalEdgeStyle;rounded=0;orthogonalLoop=1;jettySize=auto;html=1;" edge="1" parent="29qD2QvMl3Nega16LxBb-12" source="TZxjagtBM15yJBJZG-NF-60" target="TZxjagtBM15yJBJZG-NF-61">
          <mxGeometry relative="1" as="geometry" />
        </mxCell>
        <mxCell id="TZxjagtBM15yJBJZG-NF-60" value="Cambio de contraseña" style="rounded=1;whiteSpace=wrap;html=1;shadow=0;comic=0;labelBackgroundColor=none;strokeWidth=1;fontFamily=Verdana;fontSize=12;align=center;arcSize=50;" vertex="1" parent="29qD2QvMl3Nega16LxBb-12">
          <mxGeometry x="45.00000000000011" y="420" width="118.75" height="60" as="geometry" />
        </mxCell>
        <mxCell id="TZxjagtBM15yJBJZG-NF-66" style="edgeStyle=orthogonalEdgeStyle;rounded=0;orthogonalLoop=1;jettySize=auto;html=1;" edge="1" parent="29qD2QvMl3Nega16LxBb-12" source="TZxjagtBM15yJBJZG-NF-61" target="TZxjagtBM15yJBJZG-NF-65">
          <mxGeometry relative="1" as="geometry" />
        </mxCell>
        <mxCell id="TZxjagtBM15yJBJZG-NF-61" value="&amp;nbsp;Confirmar contraseña" style="rounded=1;whiteSpace=wrap;html=1;shadow=0;comic=0;labelBackgroundColor=none;strokeWidth=1;fontFamily=Verdana;fontSize=12;align=center;arcSize=50;" vertex="1" parent="29qD2QvMl3Nega16LxBb-12">
          <mxGeometry x="45.00000000000011" y="520" width="118.75" height="60" as="geometry" />
        </mxCell>
        <mxCell id="TZxjagtBM15yJBJZG-NF-65" value="&lt;font style=&quot;font-size: 11px;&quot;&gt;¿La contraseña es valida?&lt;/font&gt;" style="rhombus;whiteSpace=wrap;html=1;align=center;" vertex="1" parent="29qD2QvMl3Nega16LxBb-12">
          <mxGeometry x="59" y="630" width="104.75" height="100" as="geometry" />
        </mxCell>
        <mxCell id="TZxjagtBM15yJBJZG-NF-69" style="edgeStyle=orthogonalEdgeStyle;rounded=0;orthogonalLoop=1;jettySize=auto;html=1;" edge="1" parent="29qD2QvMl3Nega16LxBb-7" source="TZxjagtBM15yJBJZG-NF-65" target="TZxjagtBM15yJBJZG-NF-68">
          <mxGeometry relative="1" as="geometry">
            <Array as="points">
              <mxPoint x="665" y="730" />
              <mxPoint x="665" y="435" />
            </Array>
          </mxGeometry>
        </mxCell>
        <mxCell id="TZxjagtBM15yJBJZG-NF-70" value="&lt;font style=&quot;font-size: 16px;&quot;&gt;No&lt;/font&gt;" style="edgeLabel;html=1;align=center;verticalAlign=middle;resizable=0;points=[];" vertex="1" connectable="0" parent="TZxjagtBM15yJBJZG-NF-69">
          <mxGeometry x="-0.4805" relative="1" as="geometry">
            <mxPoint as="offset" />
          </mxGeometry>
        </mxCell>
        <mxCell id="TZxjagtBM15yJBJZG-NF-71" style="edgeStyle=orthogonalEdgeStyle;rounded=0;orthogonalLoop=1;jettySize=auto;html=1;" edge="1" parent="29qD2QvMl3Nega16LxBb-7" source="TZxjagtBM15yJBJZG-NF-68" target="TZxjagtBM15yJBJZG-NF-38">
          <mxGeometry relative="1" as="geometry">
            <Array as="points">
              <mxPoint x="560" y="380" />
            </Array>
          </mxGeometry>
        </mxCell>
        <mxCell id="TZxjagtBM15yJBJZG-NF-76" style="edgeStyle=orthogonalEdgeStyle;rounded=0;orthogonalLoop=1;jettySize=auto;html=1;" edge="1" parent="29qD2QvMl3Nega16LxBb-7" source="TZxjagtBM15yJBJZG-NF-65" target="TZxjagtBM15yJBJZG-NF-72">
          <mxGeometry relative="1" as="geometry">
            <Array as="points">
              <mxPoint x="791" y="800" />
              <mxPoint x="625" y="800" />
              <mxPoint x="625" y="685" />
            </Array>
          </mxGeometry>
        </mxCell>
        <mxCell id="TZxjagtBM15yJBJZG-NF-77" value="&lt;font style=&quot;font-size: 16px;&quot;&gt;Si&lt;/font&gt;" style="edgeLabel;html=1;align=center;verticalAlign=middle;resizable=0;points=[];" vertex="1" connectable="0" parent="TZxjagtBM15yJBJZG-NF-76">
          <mxGeometry x="-0.6374" y="2" relative="1" as="geometry">
            <mxPoint x="4" y="-2" as="offset" />
          </mxGeometry>
        </mxCell>
        <mxCell id="TZxjagtBM15yJBJZG-NF-78" style="edgeStyle=orthogonalEdgeStyle;rounded=0;orthogonalLoop=1;jettySize=auto;html=1;" edge="1" parent="29qD2QvMl3Nega16LxBb-7" source="TZxjagtBM15yJBJZG-NF-72" target="1MVDxf54JgNe-HN3kASA-71">
          <mxGeometry relative="1" as="geometry" />
        </mxCell>
        <mxCell id="TZxjagtBM15yJBJZG-NF-80" style="edgeStyle=orthogonalEdgeStyle;rounded=0;orthogonalLoop=1;jettySize=auto;html=1;" edge="1" parent="29qD2QvMl3Nega16LxBb-7" source="1MVDxf54JgNe-HN3kASA-71" target="1MVDxf54JgNe-HN3kASA-70">
          <mxGeometry relative="1" as="geometry" />
        </mxCell>
        <mxCell id="TZxjagtBM15yJBJZG-NF-82" style="edgeStyle=orthogonalEdgeStyle;rounded=0;orthogonalLoop=1;jettySize=auto;html=1;" edge="1" parent="29qD2QvMl3Nega16LxBb-7" source="1MVDxf54JgNe-HN3kASA-70" target="TZxjagtBM15yJBJZG-NF-81">
          <mxGeometry relative="1" as="geometry">
            <Array as="points">
              <mxPoint x="95" y="799" />
            </Array>
          </mxGeometry>
        </mxCell>
        <mxCell id="TZxjagtBM15yJBJZG-NF-83" style="edgeStyle=orthogonalEdgeStyle;rounded=0;orthogonalLoop=1;jettySize=auto;html=1;" edge="1" parent="29qD2QvMl3Nega16LxBb-7" source="TZxjagtBM15yJBJZG-NF-81" target="1MVDxf54JgNe-HN3kASA-72">
          <mxGeometry relative="1" as="geometry" />
        </mxCell>
        <mxCell id="29qD2QvMl3Nega16LxBb-270" value="¿Ya existe ese usuario?" style="rhombus;whiteSpace=wrap;html=1;" parent="1" vertex="1">
          <mxGeometry x="1258" y="650" width="110" height="85" as="geometry" />
        </mxCell>
        <mxCell id="29qD2QvMl3Nega16LxBb-271" style="edgeStyle=orthogonalEdgeStyle;rounded=0;orthogonalLoop=1;jettySize=auto;html=1;" parent="1" source="29qD2QvMl3Nega16LxBb-253" target="29qD2QvMl3Nega16LxBb-270" edge="1">
          <mxGeometry relative="1" as="geometry">
            <Array as="points">
              <mxPoint x="1190" y="692" />
            </Array>
          </mxGeometry>
        </mxCell>
        <mxCell id="29qD2QvMl3Nega16LxBb-272" style="edgeStyle=orthogonalEdgeStyle;rounded=0;orthogonalLoop=1;jettySize=auto;html=1;" parent="1" source="29qD2QvMl3Nega16LxBb-270" target="29qD2QvMl3Nega16LxBb-246" edge="1">
          <mxGeometry relative="1" as="geometry">
            <Array as="points">
              <mxPoint x="1300" y="770" />
              <mxPoint x="1231" y="770" />
            </Array>
          </mxGeometry>
        </mxCell>
        <mxCell id="29qD2QvMl3Nega16LxBb-276" value="&lt;font style=&quot;font-size: 16px;&quot;&gt;No&lt;/font&gt;" style="edgeLabel;html=1;align=center;verticalAlign=middle;resizable=0;points=[];" parent="29qD2QvMl3Nega16LxBb-272" vertex="1" connectable="0">
          <mxGeometry x="-0.4577" y="2" relative="1" as="geometry">
            <mxPoint x="-32" y="7" as="offset" />
          </mxGeometry>
        </mxCell>
        <mxCell id="29qD2QvMl3Nega16LxBb-273" style="edgeStyle=orthogonalEdgeStyle;rounded=0;orthogonalLoop=1;jettySize=auto;html=1;" parent="1" source="29qD2QvMl3Nega16LxBb-270" target="29qD2QvMl3Nega16LxBb-254" edge="1">
          <mxGeometry relative="1" as="geometry">
            <Array as="points">
              <mxPoint x="1510" y="680" />
              <mxPoint x="1510" y="760" />
              <mxPoint x="1791" y="760" />
            </Array>
          </mxGeometry>
        </mxCell>
        <mxCell id="29qD2QvMl3Nega16LxBb-275" value="&lt;font style=&quot;font-size: 16px;&quot;&gt;Si&lt;/font&gt;" style="edgeLabel;html=1;align=center;verticalAlign=middle;resizable=0;points=[];" parent="29qD2QvMl3Nega16LxBb-273" vertex="1" connectable="0">
          <mxGeometry x="-0.5421" y="-1" relative="1" as="geometry">
            <mxPoint x="-64" y="-1" as="offset" />
          </mxGeometry>
        </mxCell>
      </root>
    </mxGraphModel>
  </diagram>
</mxfile>
